{
  "title": "The.Nice.Guys.2016.HDCAM.AAC-PEPSi",
  "uid": 14932645,
  "size": 952335658,
  "categoryP": "video",
  "categoryS": "movies",
  "magnet": "?xt=urn:btih:d9dd8446e581505c610752395cc7baa522ef1352&amp;dn=The.Nice.Guys.2016.HDCAM.AAC-PEPSi&amp;tr=udp%3A%2F%2Ftracker.leechers-paradise.org%3A6969&amp;tr=udp%3A%2F%2Fzer0day.ch%3A1337&amp;tr=udp%3A%2F%2Fopen.demonii.com%3A1337&amp;tr=udp%3A%2F%2Ftracker.coppersurfer.tk%3A6969&amp;tr=udp%3A%2F%2Fexodus.desync.com%3A6969",
  "seeders": 44,
  "leechers": 9,
  "uploader": "xxxlavalxxx",
  "files": 2,
  "time": 1465968377,
  "description": "http://extraimago.com/image/apbk\r\n \nhttp://www.imdb.com/title/tt3799694/\r\n\r\n\r\nA mismatched pair of private eyes investigate the apparent suicide of a fading porn star in 1970s Los Angeles.\r\n\r\nDirector: Shane Black\r\nWriters: Shane Black, Anthony Bagarozzi\r\nStars: Russell Crowe, Ryan Gosling, Angourie Rice\r\nGenres: Action | Comedy | Crime | Mystery | Thriller\r\nCountry: USA\r\nLanguage: English\r\n\r\n\r\nGeneral\r\nFormat                         : Matroska\r\nFile size                      : 908 MiB\r\nDuration                       : 1h 51mn\r\nOverall bit rate               : 1 136 Kbps\r\n\r\nVideo\r\nID                             : 1\r\nFormat                         : AVC\r\nFormat/Info                    : Advanced Video Codec\r\nFormat profile                 :   \r\nFormat settings, CABAC         : Yes\r\nFormat settings, ReFrames      : 3 frames\r\nFormat settings, GOP           : M=4, N=25\r\nCodec ID                       : V_MPEG4/ISO/AVC\r\nDuration                       : 1h 51mn\r\nBit rate                       : 1 000 Kbps\r\nWidth                          : 720 pixels\r\nHeight                         : 358 pixels\r\nDisplay aspect ratio           : 2.011\r\nFrame rate mode                : Constant\r\nFrame rate                     : 29.970 (30000/1001) fps\r\nColor space                    : YUV\r\nChroma subsampling             : 4:2:0\r\nBit depth                      : 8 bits\r\nScan type                      : Progressive\r\nBits/(Pixel*Frame)             : 0.129\r\nStream size                    : 803 MiB (88%)\r\nForced                         : No\r\n\r\nAudio\r\nID                             : 2\r\nFormat                         : AAC\r\nFormat/Info                    : Advanced Audio Codec\r\nFormat profile                 : LC\r\nCodec ID                       : A_AAC\r\nDuration                       : 1h 51mn\r\nBit rate                       : 128 Kbps\r\nChannel(s)                     : 2 channels\r\nChannel positions              : Front: L R\r\nSampling rate                  : 48.0 KHz\r\nFrame rate                     : 46.875 fps (1024 spf)\r\nCompression mode               : Lossy\r\nStream size                    : 103 MiB (11%)\r\nDefault                        : Yes\r\nForced                         : No\r\n\r\n \nhttp://extraimago.com/image/apbo \nhttp://extraimago.com/image/apbt \nhttp://extraimago.com/image/apbx",
  "parsed": {
    "xt": "urn:btih:d9dd8446e581505c610752395cc7baa522ef1352",
    "dn": "The.Nice.Guys.2016.HDCAM.AAC-PEPSi",
    "tr": [
      "udp://exodus.desync.com:6969",
      "udp://open.demonii.com:1337",
      "udp://tracker.coppersurfer.tk:6969",
      "udp://tracker.leechers-paradise.org:6969",
      "udp://zer0day.ch:1337"
    ],
    "infoHash": "d9dd8446e581505c610752395cc7baa522ef1352",
    "infoHashBuffer": {
      "type": "Buffer",
      "data": [
        217,
        221,
        132,
        70,
        229,
        129,
        80,
        92,
        97,
        7,
        82,
        57,
        92,
        199,
        186,
        165,
        34,
        239,
        19,
        82
      ]
    },
    "name": "The.Nice.Guys.2016.HDCAM.AAC-PEPSi",
    "announce": [
      "udp://exodus.desync.com:6969",
      "udp://open.demonii.com:1337",
      "udp://tracker.coppersurfer.tk:6969",
      "udp://tracker.leechers-paradise.org:6969",
      "udp://zer0day.ch:1337"
    ],
    "urlList": []
  },
  "previous": 53,
  "peers": 91,
  "last_updated": "2016-12-25T15:30:44.768Z"
}